<?xml version="1.0" encoding="iso-8859-1"?>
<!-- Generator: Adobe Illustrator 19.0.0, SVG Export Plug-In . SVG Version: 6.00 Build 0)  -->
<svg version="1.1" id="Capa_1" xmlns="http://www.w3.org/2000/svg" xmlns:xlink="http://www.w3.org/1999/xlink" x="0px" y="0px"
	 viewBox="0 0 128 128" style="enable-background:new 0 0 128 128;" xml:space="preserve">
<g>
	<path d="M116,94V32c0-3.3-2.7-6-6-6H18c-3.3,0-6,2.7-6,6v62H0v4c0,2.2,1.8,4,4,4h120c2.2,0,4-1.8,4-4v-4H116z M14,32
		c0-2.206,1.794-4,4-4h92c2.206,0,4,1.794,4,4v62H14V32z M126,98c0,1.103-0.897,2-2,2H4c-1.103,0-2-0.897-2-2v-2h10h44
		c0,1.1,0.9,2,2,2h12c1.1,0,2-0.9,2-2h44h10V98z"/>
	<path d="M109,30H19c-1.657,0-3,1.343-3,3v56c0,1.657,1.343,3,3,3h90c1.657,0,3-1.343,3-3V33C112,31.343,110.657,30,109,30z M111,89
		c0,1.103-0.897,2-2,2H19c-1.103,0-2-0.897-2-2V33c0-1.103,0.897-2,2-2h90c1.103,0,2,0.897,2,2V89z"/>
</g>
<g>
</g>
<g>
</g>
<g>
</g>
<g>
</g>
<g>
</g>
<g>
</g>
<g>
</g>
<g>
</g>
<g>
</g>
<g>
</g>
<g>
</g>
<g>
</g>
<g>
</g>
<g>
</g>
<g>
</g>
</svg>
