<?xml version="1.0" encoding="iso-8859-1"?>
<!-- Generator: Adobe Illustrator 19.0.0, SVG Export Plug-In . SVG Version: 6.00 Build 0)  -->
<svg version="1.1" id="Layer_1" xmlns="http://www.w3.org/2000/svg" xmlns:xlink="http://www.w3.org/1999/xlink" x="0px" y="0px"
	 viewBox="0 0 511.999 511.999" style="enable-background:new 0 0 511.999 511.999;" xml:space="preserve">
<g>
	<g>
		<path d="M466.953,385.781c-3.833-6.398-11.115-9.889-18.502-8.871c-9.879,1.364-19.956,2.055-29.95,2.055
			c-77.008,0-149.386-40.991-188.887-106.975c-45.388-75.818-41.114-170.983,10.889-242.444c4.388-6.03,4.75-14.099,0.919-20.498
			c-3.83-6.4-11.115-9.893-18.5-8.872c-34.3,4.733-66.866,16.216-96.794,34.132C4.498,107.12-35.217,265.31,37.596,386.939
			c73.035,122.001,231.021,161.333,352.632,88.532c29.927-17.915,55.431-41.195,75.805-69.193
			C470.421,400.248,470.783,392.179,466.953,385.781z M371.12,443.554c-105.557,63.192-240.277,26.729-301.607-75.722
			c-62.277-104.03-28.309-239.33,75.722-301.608c13.322-7.976,27.251-14.461,41.676-19.417
			c-37.477,77.146-34.346,168.898,10.785,244.288c44.878,74.97,123.984,121.299,210.271,124.851
			C396.772,426.339,384.462,435.567,371.12,443.554z"/>
	</g>
</g>
<g>
	<g>
		<path d="M347.799,106.82l-8.61-13.023c-0.973-1.472-1.24-3.302-0.725-4.991l4.545-14.936c1.616-5.31-4.304-9.726-8.933-6.665
			l-13.023,8.61c-1.472,0.973-3.302,1.24-4.991,0.725l-14.935-4.544c-5.31-1.616-9.726,4.304-6.665,8.933l8.61,13.023
			c0.973,1.472,1.24,3.302,0.725,4.991l-4.544,14.936c-1.617,5.31,4.303,9.725,8.933,6.665l13.023-8.61
			c1.472-0.973,3.302-1.24,4.991-0.725l14.936,4.544C346.444,117.368,350.861,111.448,347.799,106.82z"/>
	</g>
</g>
<g>
	<g>
		<path d="M476.557,243.91l-5.29-1.905c-1.66-0.598-2.969-1.906-3.566-3.566l-1.905-5.29c-1.881-5.222-9.266-5.222-11.146,0
			l-1.905,5.29c-0.598,1.66-1.906,2.969-3.566,3.566l-5.29,1.905c-5.222,1.88-5.222,9.265,0,11.146l5.29,1.905
			c1.66,0.598,2.969,1.906,3.566,3.566l1.905,5.29c1.88,5.222,9.265,5.222,11.146,0l1.905-5.29c0.598-1.66,1.906-2.969,3.566-3.566
			l5.29-1.905C481.779,253.177,481.779,245.791,476.557,243.91z"/>
	</g>
</g>
<g>
	<g>
		<path d="M506.934,38.084c-1.662-0.598-2.969-1.906-3.566-3.566c-1.88-5.223-9.265-5.223-11.146,0
			c-0.598,1.66-1.906,2.969-3.566,3.566c-5.222,1.88-5.222,9.265,0,11.146c1.66,0.598,2.969,1.906,3.566,3.566
			c1.88,5.222,9.265,5.222,11.146,0c0.598-1.66,1.906-2.969,3.566-3.566C512.156,47.35,512.156,39.965,506.934,38.084z"/>
	</g>
</g>
<g>
</g>
<g>
</g>
<g>
</g>
<g>
</g>
<g>
</g>
<g>
</g>
<g>
</g>
<g>
</g>
<g>
</g>
<g>
</g>
<g>
</g>
<g>
</g>
<g>
</g>
<g>
</g>
<g>
</g>
</svg>
